<svg xmlns="http://www.w3.org/2000/svg" xmlns:xlink="http://www.w3.org/1999/xlink" width="60" height="60" viewBox="0 0 60 60">
  <defs>
    <circle id="360_video_play_button-b" cx="41" cy="41" r="24"/>
    <filter id="360_video_play_button-a" width="133.3%" height="133.3%" x="-16.7%" y="-16.7%" filterUnits="objectBoundingBox">
      <feMorphology in="SourceAlpha" operator="dilate" radius="2" result="shadowSpreadOuter1"/>
      <feOffset in="shadowSpreadOuter1" result="shadowOffsetOuter1"/>
      <feGaussianBlur in="shadowOffsetOuter1" result="shadowBlurOuter1" stdDeviation="2"/>
      <feComposite in="shadowBlurOuter1" in2="SourceAlpha" operator="out" result="shadowBlurOuter1"/>
      <feColorMatrix in="shadowBlurOuter1" values="0 0 0 0 0   0 0 0 0 0   0 0 0 0 0  0 0 0 0.7 0"/>
    </filter>
  </defs>
  <g fill="none" fill-rule="evenodd" transform="translate(-11 -11)">
    <rect width="82" height="82"/>
    <use fill="#000" filter="url(#360_video_play_button-a)" xlink:href="#360_video_play_button-b"/>
    <circle cx="41" cy="41" r="25" fill="#000" fill-opacity=".7" stroke="#FFF" stroke-width="2"/>
    <path fill="#FFF" d="M53.4261949,42.0340059 L36.0311949,52.6400059 C35.6644773,52.8768919 35.2367643,53.0019744 34.8001949,53.0000059 L33.1561949,53.0000059 C32.5057932,52.9874209 31.9884862,52.450424 32.0001949,51.8000059 L32.0001949,30.2000059 C31.9884862,29.5495879 32.5057932,29.012591 33.1561949,29.0000059 L34.8001949,29.0000059 C35.2350641,28.9990064 35.660905,29.1240494 36.0261949,29.3600059 L53.4261949,39.9600059 C53.7836842,40.1835149 54.0008431,40.5753961 54.0008431,40.9970059 C54.0008431,41.4186158 53.7836842,41.810497 53.4261949,42.0340059 Z"/>
  </g>
</svg>
