<svg xmlns="http://www.w3.org/2000/svg" xmlns:xlink="http://www.w3.org/1999/xlink" width="36" height="36" viewBox="0 0 36 36">
  <defs>
    <rect id="360-close-click-b" width="24" height="24" x="6" y="6" rx="2"/>
    <filter id="360-close-click-a" width="166.7%" height="166.7%" x="-33.3%" y="-33.3%" filterUnits="objectBoundingBox">
      <feMorphology in="SourceAlpha" operator="dilate" radius="2" result="shadowSpreadOuter1"/>
      <feOffset in="shadowSpreadOuter1" result="shadowOffsetOuter1"/>
      <feGaussianBlur in="shadowOffsetOuter1" result="shadowBlurOuter1" stdDeviation="2"/>
      <feComposite in="shadowBlurOuter1" in2="SourceAlpha" operator="out" result="shadowBlurOuter1"/>
      <feColorMatrix in="shadowBlurOuter1" values="0 0 0 0 0   0 0 0 0 0   0 0 0 0 0  0 0 0 0.7 0"/>
    </filter>
  </defs>
  <g fill="none" fill-rule="evenodd">
    <rect width="36" height="36"/>
    <use fill="#000" filter="url(#360-close-click-a)" xlink:href="#360-close-click-b"/>
    <rect width="26" height="26" x="5" y="5" fill="#000" fill-opacity=".7" stroke="#FFF" stroke-width="2" rx="2"/>
    <path fill="#FFF" fill-opacity=".9" d="M23.9019097,22.8699097 L22.8659097,23.9059097 C22.7009485,24.0716449 22.476748,24.1648194 22.2429097,24.1648194 C22.0090714,24.1648194 21.7848709,24.0716449 21.6199097,23.9059097 L17.5779097,19.8629097 L13.5349097,23.9049097 C13.3699485,24.0706449 13.145748,24.1638194 12.9119097,24.1638194 C12.6780714,24.1638194 12.4538709,24.0706449 12.2889097,23.9049097 L11.2589097,22.8689097 C11.0931744,22.7039485 11,22.479748 11,22.2459097 C11,22.0120714 11.0931744,21.7878709 11.2589097,21.6229097 L15.2999097,17.5829097 L11.2589097,13.5409097 C11.0931744,13.3759485 11,13.151748 11,12.9179097 C11,12.6840714 11.0931744,12.4598709 11.2589097,12.2949097 L12.2949097,11.2589097 C12.4598709,11.0931744 12.6840714,11 12.9179097,11 C13.151748,11 13.3759485,11.0931744 13.5409097,11.2589097 L17.5779097,15.3029097 L21.6199097,11.2609097 C21.7848709,11.0951744 22.0090714,11.002 22.2429097,11.002 C22.476748,11.002 22.7009485,11.0951744 22.8659097,11.2609097 L23.9019097,12.2969097 C24.0676449,12.4618709 24.1608194,12.6860714 24.1608194,12.9199097 C24.1608194,13.153748 24.0676449,13.3779485 23.9019097,13.5429097 L19.8599097,17.5829097 L23.9019097,21.6249097 C24.0676449,21.7898709 24.1608194,22.0140714 24.1608194,22.2479097 C24.1608194,22.481748 24.0676449,22.7059485 23.9019097,22.8709097 L23.9019097,22.8699097 Z"/>
  </g>
</svg>
