<svg xmlns="http://www.w3.org/2000/svg" xmlns:xlink="http://www.w3.org/1999/xlink" width="72" height="72" viewBox="0 0 72 72">
  <defs>
    <path id="360_video_pause_button_progress-b" d="M41,73 C23.326888,73 9,58.673112 9,41 C9,23.326888 23.326888,9 41,9 C58.673112,9 73,23.326888 73,41 C73,58.673112 58.673112,73 41,73 Z M41,67 C55.3594035,67 67,55.3594035 67,41 C67,26.6405965 55.3594035,15 41,15 C26.6405965,15 15,26.6405965 15,41 C15,55.3594035 26.6405965,67 41,67 Z"/>
    <filter id="360_video_pause_button_progress-a" width="118.8%" height="118.8%" x="-9.4%" y="-9.4%" filterUnits="objectBoundingBox">
      <feOffset in="SourceAlpha" result="shadowOffsetOuter1"/>
      <feGaussianBlur in="shadowOffsetOuter1" result="shadowBlurOuter1" stdDeviation="2"/>
      <feComposite in="shadowBlurOuter1" in2="SourceAlpha" operator="out" result="shadowBlurOuter1"/>
      <feColorMatrix in="shadowBlurOuter1" values="0 0 0 0 0   0 0 0 0 0   0 0 0 0 0  0 0 0 0.7 0"/>
    </filter>
    <circle id="360_video_pause_button_progress-d" cx="41" cy="41" r="24"/>
    <filter id="360_video_pause_button_progress-c" width="133.3%" height="133.3%" x="-16.7%" y="-16.7%" filterUnits="objectBoundingBox">
      <feMorphology in="SourceAlpha" operator="dilate" radius="2" result="shadowSpreadOuter1"/>
      <feOffset in="shadowSpreadOuter1" result="shadowOffsetOuter1"/>
      <feGaussianBlur in="shadowOffsetOuter1" result="shadowBlurOuter1" stdDeviation="2"/>
      <feComposite in="shadowBlurOuter1" in2="SourceAlpha" operator="out" result="shadowBlurOuter1"/>
      <feColorMatrix in="shadowBlurOuter1" values="0 0 0 0 0   0 0 0 0 0   0 0 0 0 0  0 0 0 0.7 0"/>
    </filter>
  </defs>
  <g fill="none" fill-rule="evenodd" transform="translate(-5 -5)">
    <rect width="82" height="82"/>
    <use fill="#000" filter="url(#360_video_pause_button_progress-a)" xlink:href="#360_video_pause_button_progress-b"/>
    <use fill="#000" fill-opacity=".7" xlink:href="#360_video_pause_button_progress-b"/>
    <use fill="#000" filter="url(#360_video_pause_button_progress-c)" xlink:href="#360_video_pause_button_progress-d"/>
    <circle cx="41" cy="41" r="25" fill="#000" fill-opacity=".7" stroke="#FFF" stroke-width="2"/>
    <rect width="8" height="26" x="30" y="28" fill="#FFF" rx="1"/>
    <rect width="8" height="26" x="44" y="28" fill="#FFF" rx="1"/>
  </g>
</svg>
