<svg xmlns="http://www.w3.org/2000/svg" viewBox="0 0 52 52">
  <defs>
    <style>
      .cls-1 {
        opacity: 0.2;
      }

      .cls-2, .cls-3 {
        fill: #fff;
      }

      .cls-3 {
        fill-rule: evenodd;
      }
    </style>
  </defs>
  <g id="_360_slide_OFF_Normal" data-name="360 slide OFF Normal" transform="translate(-86 -80)">
    <circle id="Ellipse_9" data-name="Ellipse 9" class="cls-1" cx="26" cy="26" r="26" transform="translate(86 80)"/>
    <g id="Group_49" data-name="Group 49" transform="translate(96 92)">
      <path id="Path_44" data-name="Path 44" class="cls-2" d="M31.072,7.9a16.708,16.708,0,0,0-3.04-1.344,14.314,14.314,0,0,0-24.064,0A17.753,17.753,0,0,0,.928,7.9,16.987,16.987,0,0,0,0,14.3c0,3.2.448,5.536.928,6.4a16.708,16.708,0,0,0,3.04,1.344,14.333,14.333,0,0,0,24.064.032,17.753,17.753,0,0,0,3.04-1.344,16.987,16.987,0,0,0,.928-6.4A16.538,16.538,0,0,0,31.072,7.9ZM16,1.6a12.74,12.74,0,0,1,9.472,4.224A41.455,41.455,0,0,0,16,4.768,41.455,41.455,0,0,0,6.528,5.824,12.74,12.74,0,0,1,16,1.6Zm0,25.472a12.74,12.74,0,0,1-9.472-4.224A41.455,41.455,0,0,0,16,23.9a41.455,41.455,0,0,0,9.472-1.056A12.74,12.74,0,0,1,16,27.072Zm13.792-7.456c-.192.1-.384.192-.608.288a13.765,13.765,0,0,1-2.208.832A36.8,36.8,0,0,1,16,22.272,36.5,36.5,0,0,1,5.024,20.736c-.8-.256-1.536-.544-2.208-.832-.224-.1-.416-.192-.608-.288a18.017,18.017,0,0,1-.608-5.28,18.017,18.017,0,0,1,.608-5.28c.192-.1.384-.192.608-.288a13.765,13.765,0,0,1,2.208-.832A36.8,36.8,0,0,1,16,6.4,36.5,36.5,0,0,1,26.976,7.936c.8.256,1.536.544,2.208.832.224.1.416.192.608.288a17.836,17.836,0,0,1,.608,5.28A17.836,17.836,0,0,1,29.792,19.616Z"/>
      <path id="Path_45" data-name="Path 45" class="cls-3" d="M31.264,29.1c-5.056,0-8.864,1.824-8.864,4.224,0,1.408,1.216,2.592,3.488,3.392a.792.792,0,0,0,.96-.48.845.845,0,0,0-.48-.992c-1.472-.512-2.464-1.28-2.464-1.952,0-1.152,2.784-2.72,7.328-2.72s7.36,1.6,7.36,2.752c0,.8-1.408,1.792-3.744,2.336l1.184-1.024a.75.75,0,1,0-.96-1.152L31.84,36.236a.74.74,0,0,0-.256.736.831.831,0,0,0,.48.608L36,39.116a.7.7,0,0,0,.256.032.79.79,0,0,0,.736-.48.755.755,0,0,0-.416-.992l-1.344-.512c3.008-.672,4.864-2.08,4.864-3.84,0-2.4-3.808-4.224-8.832-4.224" transform="translate(-15.232 -19.788)"/>
    </g>
  </g>
</svg>
